PathFileType	4	(X/Y/Z)	C:\Users\Basilio\Documents\Thesis Gigler\squatting_fais\c3dfiles\054\SLS_back_pre4\markers_experimental.trc
DataRate	CameraRate	NumFrames	NumMarkers	Units	OrigDataRate	OrigDataStartFrame	OrigNumFrames
200.000000	200.000000	4	61	mm	200.000000	191	1535
Frame#	Time	FHD			LBHD			RBHD			C7			T10			CLAV			LSHO			LUUPA			LMUPA			LDUPA			LLEP			LMEP			LRAD			LUL			LRFIN			RSHO			RUPA1			RMUPA			RDUPA			RLEP			RMEP			RRAD			RUL			RUFIN			LASI			RASI			USACR			LSACR			RSACR			LTHI1			LTHI2			LTHI3			LTHI4			LLFC			LMFC			LTIB1			LTIB2			LTIB3			LTIB4			LLMAL			LMMAL			LHEE			LMT1			LMT2			LMT5			RTHI			RTHI2			RTHI3			RTHI4			RLFC			RMFC			RTIB1			RTIB2			RTIB3			RTIB4			RLMAL			RMMAL			RHEE			RMT1			RMT2			RMT5			
		X1	Y1	Z1	X2	Y2	Z2	X3	Y3	Z3	X4	Y4	Z4	X5	Y5	Z5	X6	Y6	Z6	X7	Y7	Z7	X8	Y8	Z8	X9	Y9	Z9	X10	Y10	Z10	X11	Y11	Z11	X12	Y12	Z12	X13	Y13	Z13	X14	Y14	Z14	X15	Y15	Z15	X16	Y16	Z16	X17	Y17	Z17	X18	Y18	Z18	X19	Y19	Z19	X20	Y20	Z20	X21	Y21	Z21	X22	Y22	Z22	X23	Y23	Z23	X24	Y24	Z24	X25	Y25	Z25	X26	Y26	Z26	X27	Y27	Z27	X28	Y28	Z28	X29	Y29	Z29	X30	Y30	Z30	X31	Y31	Z31	X32	Y32	Z32	X33	Y33	Z33	X34	Y34	Z34	X35	Y35	Z35	X36	Y36	Z36	X37	Y37	Z37	X38	Y38	Z38	X39	Y39	Z39	X40	Y40	Z40	X41	Y41	Z41	X42	Y42	Z42	X43	Y43	Z43	X44	Y44	Z44	X45	Y45	Z45	X46	Y46	Z46	X47	Y47	Z47	X48	Y48	Z48	X49	Y49	Z49	X50	Y50	Z50	X51	Y51	Z51	X52	Y52	Z52	X53	Y53	Z53	X54	Y54	Z54	X55	Y55	Z55	X56	Y56	Z56	X57	Y57	Z57	X58	Y58	Z58	X59	Y59	Z59	X60	Y60	Z60	X61	Y61	Z61	

192	0.9550000000000001	-219.0043487548829	1785.35009765625	-898.0754394531252	-384.0178527832032	1730.730346679688	-964.7876586914065	-396.1281127929689	1731.98828125	-824.950378417969	-422.0928649902345	1551.699340820313	-881.1478271484377	-410.6630859375001	1220.792236328125	-882.5855712890627	-271.9855651855469	1510.258056640625	-891.570495605469	-357.1087951660157	1552.252319335938	-1039.615600585938	-200.7624206542969	1438.367797851563	-1161.877319335938	-168.8341827392578	1474.275512695313	-1148.36376953125	-130.7722320556641	1432.835571289063	-1170.806396484375	-72.55236816406251	1439.022094726563	-1166.974609375	-69.9988250732422	1373.378540039063	-1121.511474609375	170.311019897461	1482.08447265625	-1057.470825195313	197.9650115966797	1451.74755859375	-1123.838623046875	263.2278747558594	1509.901245117188	-1064.549682617188	-340.5979919433594	1556.350341796875	-740.6042480468751	-175.8867645263672	1441.52783203125	-622.7336425781251	-141.8578796386719	1473.066528320313	-635.7118530273439	-106.8848724365235	1425.941772460938	-616.3295288085939	-61.78829574584962	1421.698486328125	-621.0378417968751	-67.75501251220705	1365.881469726563	-673.3391723632814	182.6686706542969	1492.17138671875	-761.0764770507814	197.271469116211	1460.171875	-689.0495605468751	255.4315032958985	1528.923828125	-756.2364501953126	-209.2059631347657	1064.036010742188	-1010.037536621094	-208.0831451416016	1065.327514648438	-753.8204345703126	-402.2379760742189	1138.592163085938	-881.6137695312502	-406.0329895019532	1106.232055664063	-909.6821289062502	-404.4126586914064	1105.400634765625	-852.9913330078127	-312.7674255371094	829.6682128906252	-1098.67919921875	-284.9144897460938	748.9509277343751	-1101.615844726563	-238.0517730712891	749.9193725585939	-1096.23486328125	-316.1015625000001	697.2070312500001	-1086.8857421875	-325.4490661621094	543.0571289062501	-1074.50537109375	-288.4403381347657	525.6628417968751	-940.801940917969	-282.7666320800782	376.5969848632813	-1039.275024414063	-336.1961059570313	336.3761596679688	-1099.7275390625	-296.5515747070313	331.5958557128907	-1075.067993164063	-300.4348754882813	250.9902038574219	-1048.745849609375	-358.4966735839844	115.0031280517578	-1096.060424804688	-326.8390502929688	131.4307861328125	-1005.006286621094	-428.0759277343751	102.9048309326172	-1040.84619140625	-215.775131225586	57.15554428100587	-1020.143249511719	-208.7945404052735	55.92550277709962	-1069.869262695313	-260.7183227539063	39.82871627807618	-1121.006103515625	-322.7334594726563	763.2407836914064	-682.6795654296876	-292.0907592773438	704.7997436523439	-679.8501586914064	-258.9174804687501	702.4686889648439	-682.5621948242189	-325.5561523437501	631.0186767578126	-700.5003662109376	-345.3507995605469	538.6472167968751	-705.0891723632814	-282.9839172363282	533.0855102539064	-830.1611328125002	-293.2117614746094	429.7483215332032	-704.1150512695314	-367.5398559570313	359.6007080078126	-673.9765625000001	-321.6693725585938	350.8497009277344	-679.5438842773439	-306.0911865234376	299.3578796386719	-700.2221679687501	-363.1089172363282	122.7969055175782	-677.8272705078126	-320.1264648437501	137.0025634765625	-760.5037841796876	-422.7943725585939	100.1969833374024	-739.1057739257814	-203.7340393066407	54.79209899902345	-744.0114135742189	-203.8807983398438	52.99057769775392	-696.5291748046876	-255.8618774414063	36.59775543212891	-650.9219360351564	
193	0.96	-218.9900817871094	1785.305419921875	-898.4057617187502	-383.9190673828126	1730.7421875	-965.075622558594	-396.0520019531251	1732.009765625	-825.142517089844	-422.0034484863282	1551.73291015625	-881.4620361328127	-410.6701049804689	1220.820922851563	-882.7944946289065	-271.9700927734376	1510.254638671875	-891.8359985351565	-357.0642700195313	1552.259033203125	-1039.92578125	-200.8910675048829	1438.352172851563	-1162.191040039063	-168.8295593261719	1474.307739257813	-1148.634643554688	-131.1408996582032	1432.990234375	-1171.004272460938	-72.55303955078126	1439.134521484375	-1167.4228515625	-70.04641723632814	1373.441162109375	-1121.72998046875	170.4314270019532	1482.290771484375	-1057.877563476563	198.0545959472657	1451.879150390625	-1124.186157226563	263.3338317871094	1510.052734375	-1064.890869140625	-340.6425170898438	1556.390991210938	-740.8361816406251	-175.7928466796875	1441.581176757813	-622.9961547851564	-141.7648468017578	1473.110107421875	-636.0010375976564	-106.8539505004883	1426.005004882813	-616.5982666015626	-61.78953170776369	1421.742431640625	-621.2505493164064	-67.6920623779297	1365.916870117188	-673.5831909179689	183.029769897461	1492.22705078125	-761.4653930664064	197.3060913085938	1460.202026367188	-689.2673339843751	255.4518737792969	1528.953002929688	-756.4049072265626	-209.2025604248047	1064.075805664063	-1010.307800292969	-208.0944213867188	1065.22998046875	-754.0438232421876	-402.1536254882814	1138.581298828125	-881.8837890625002	-405.9422912597657	1106.271240234375	-909.9290771484377	-404.3857727050782	1105.3818359375	-853.2413330078127	-312.7185058593751	829.7474365234377	-1098.922119140625	-284.7791442871094	749.0166015625001	-1101.865600585938	-237.9756164550782	750.0000610351564	-1096.58447265625	-316.0116271972657	697.2376098632814	-1087.156127929688	-325.0865173339844	543.0671386718751	-1074.759765625	-288.1217041015626	525.6834106445314	-940.960632324219	-282.7448425292969	376.5604858398438	-1039.481201171875	-336.2931518554688	336.4004516601563	-1099.99560546875	-296.4953613281251	331.5703735351563	-1075.169799804688	-300.3760375976563	250.9914093017579	-1048.775390625	-358.4826965332032	114.9925003051758	-1096.062255859375	-326.8588867187501	131.4718017578125	-1005.041015625	-428.2722167968751	103.1117248535157	-1040.7509765625	-215.7500610351563	57.1620445251465	-1020.159851074219	-208.2968444824219	55.99919509887697	-1069.627319335938	-260.7337646484376	39.83951950073243	-1121	-322.7113037109376	763.2065429687501	-682.6168212890626	-292.0352478027344	704.7996215820314	-679.9797363281251	-258.9181518554688	702.4482421875001	-682.6626586914064	-325.5236511230469	631.0129394531251	-700.6295776367189	-345.2234802246094	538.6559448242189	-705.1848754882814	-282.8995361328126	533.0031738281251	-830.2196044921877	-293.0170593261719	429.6789855957032	-704.2594604492189	-367.4705810546876	359.5968017578126	-673.9917602539064	-321.6573791503907	350.8493652343751	-679.5071411132814	-306.0707397460938	299.3501586914063	-700.2619018554689	-363.1261291503907	122.8054122924805	-677.7863159179689	-320.1278381347657	137.0276184082032	-760.5100708007814	-422.8092041015626	100.1904220581055	-739.0382080078126	-203.7944641113282	54.8018264770508	-743.9902954101564	-203.8736267089844	52.97546386718751	-696.5287475585939	-255.8254852294922	36.5617790222168	-650.8909912109376	
194	0.965	-218.8966217041016	1785.335205078125	-898.7774047851565	-383.8427124023438	1730.765380859375	-965.3717041015627	-395.818817138672	1731.935180664063	-825.4204711914065	-421.9258422851564	1551.701538085938	-881.732604980469	-410.5461425781251	1220.857177734375	-883.0927734375002	-271.9523010253907	1510.228271484375	-892.1026611328127	-357.0554809570313	1552.199340820313	-1040.169311523438	-200.6515655517579	1438.344848632813	-1162.501098632813	-168.6736145019532	1474.302490234375	-1148.969604492188	-131.0771026611328	1433.085693359375	-1171.300903320313	-72.50244140625001	1439.2177734375	-1167.794555664063	-70.05831909179689	1373.517700195313	-1121.905029296875	170.4571838378907	1482.4345703125	-1058.3056640625	198.1089324951172	1452.03955078125	-1124.557983398438	263.3129272460938	1510.241333007813	-1065.303100585938	-340.5838623046876	1556.436157226563	-741.0549926757814	-175.6866912841797	1441.606689453125	-623.2336425781251	-141.7195129394532	1473.146728515625	-636.2410888671876	-106.6923980712891	1426.1376953125	-616.9195556640626	-61.74978256225587	1421.77294921875	-621.5541381835939	-67.74930572509767	1365.94580078125	-673.7968750000001	182.7179412841797	1492.26318359375	-761.4699707031251	197.3325500488282	1460.217163085938	-689.4868774414064	255.4912872314454	1529.003295898438	-756.6212768554689	-209.1499328613282	1064.09130859375	-1010.576110839844	-208.0263824462891	1065.19287109375	-754.3747558593751	-402.0279846191407	1138.5400390625	-882.1235961914065	-405.8387145996095	1106.243041992188	-910.2124633789065	-404.3192138671876	1105.338500976563	-853.518493652344	-312.5531616210938	829.7913818359377	-1099.230224609375	-284.7062683105469	749.0608520507814	-1102.138916015625	-237.8186645507813	750.0177001953126	-1096.849609375	-315.9134216308594	697.2694702148439	-1087.377319335938	-324.9689636230469	543.1224975585939	-1074.954711914063	-287.8185729980469	525.7337646484376	-941.146911621094	-282.7021179199219	376.5289611816407	-1039.611083984375	-336.1080017089844	336.3751831054688	-1100.135009765625	-296.4781494140626	331.5270385742188	-1075.338623046875	-300.3891601562501	250.9688110351563	-1048.87890625	-358.4779968261719	115.0049133300782	-1096.06494140625	-326.8201904296876	131.4824829101563	-1005.039611816406	-428.2748107910157	103.1519851684571	-1040.747436523438	-216.0247039794922	57.14208221435548	-1020.204650878906	-208.7963562011719	55.75535202026369	-1069.9814453125	-260.4021911621094	39.65491485595704	-1120.947631835938	-322.6755676269532	763.1958007812501	-682.8723144531251	-292.0111083984376	704.8052368164064	-680.1697387695314	-258.8073425292969	702.3958129882814	-682.8964843750001	-325.4939575195313	630.9920654296876	-700.8359375000001	-345.0597534179688	538.6359863281251	-705.2868652343751	-282.7525634765626	532.9282226562501	-830.378356933594	-292.8742370605469	429.7046813964845	-704.3373413085939	-367.4002990722657	359.5948791503907	-674.0198364257814	-321.6069946289063	350.8499450683594	-679.5768432617189	-305.9000549316407	299.2932739257813	-700.3448486328126	-363.1161193847657	122.7733535766602	-677.7349243164064	-320.0954284667969	136.9808197021485	-760.4471435546876	-422.8049621582032	100.1937484741211	-739.0250244140626	-203.6476440429688	54.81460189819337	-744.0034790039064	-203.8764953613282	52.98390960693361	-696.5053710937501	-255.8400878906251	36.52672576904298	-650.8873901367189	
195	0.97	-218.9055786132813	1785.322143554688	-899.0717773437502	-383.9849853515626	1730.782470703125	-965.6766357421877	-395.7547912597657	1731.898681640625	-825.696716308594	-421.8994750976564	1551.725952148438	-881.9878540039065	-410.4769592285157	1220.890747070313	-883.4124755859377	-271.9869384765626	1510.188720703125	-892.3634033203127	-356.9541320800782	1552.198608398438	-1040.444213867188	-200.3365631103516	1438.341186523438	-1162.797607421875	-168.7575988769532	1474.321655273438	-1149.276733398438	-131.0304260253907	1433.126953125	-1171.71044921875	-72.3351516723633	1439.295532226563	-1168.14306640625	-69.95236206054689	1373.49951171875	-1122.217407226563	170.5488433837891	1482.72265625	-1058.62548828125	198.1326904296876	1452.193603515625	-1124.819946289063	262.9472351074219	1510.550537109375	-1065.610595703125	-340.6080322265626	1556.412231445313	-741.3156127929689	-175.4369506835938	1441.704223632813	-623.5650634765626	-141.7093658447266	1473.149658203125	-636.5023803710939	-106.4690628051758	1426.126098632813	-617.2465209960939	-61.533504486084	1421.80810546875	-621.8078613281251	-67.69880676269533	1365.99560546875	-674.0195922851564	183.1273345947266	1492.349975585938	-761.9862060546876	197.3739166259766	1460.273559570313	-689.6967773437501	255.5415954589844	1529.018310546875	-756.8330688476564	-209.0840759277344	1064.2099609375	-1010.894958496094	-207.9670562744141	1065.092529296875	-754.6750488281251	-401.9567871093751	1138.522216796875	-882.3689575195315	-405.7698059082032	1106.22509765625	-910.534851074219	-404.2662048339845	1105.32666015625	-853.850524902344	-312.4674072265626	829.833923339844	-1099.469482421875	-284.5765380859376	749.1384277343751	-1102.37451171875	-237.6688537597657	750.0408325195314	-1097.134643554688	-315.7775573730469	697.2683105468751	-1087.60205078125	-324.7030334472657	543.1483764648439	-1075.141479492188	-287.4798583984376	525.7711791992189	-941.3858032226565	-282.4672241210938	376.5948486328126	-1039.791381835938	-335.9876403808594	336.3377990722657	-1100.177124023438	-296.1514892578126	331.6369628906251	-1075.508178710938	-300.2101745605469	250.9925384521485	-1048.911376953125	-358.4762573242188	115.0265884399414	-1096.06494140625	-326.7619628906251	131.4926300048828	-1005.068603515625	-428.0490112304689	102.9534149169922	-1040.840454101563	-215.7823486328126	57.18446731567384	-1020.13916015625	-208.8090209960938	55.73824310302736	-1069.9814453125	-260.7805480957032	39.87053680419923	-1121.008911132813	-322.6771545410157	763.2143554687501	-683.3445434570314	-291.8330078125001	704.6907348632814	-680.3874511718751	-258.6360473632813	702.4284667968751	-683.1470947265626	-325.3399353027344	630.9276733398439	-700.9421997070314	-345.0031127929688	538.6874389648439	-705.3753051757814	-282.5600280761719	532.8702392578126	-830.5223388671877	-292.7832641601563	429.602996826172	-704.4685058593751	-367.2395019531251	359.5589294433594	-674.1058959960939	-321.4577636718751	350.8778686523438	-679.6044311523439	-305.7642822265626	299.2752075195313	-700.4074096679689	-363.1398315429688	122.7752380371094	-677.6986694335939	-320.1101989746094	136.9979705810547	-760.4511718750001	-422.8482055664064	100.1999816894532	-738.9935913085939	-203.7614898681641	54.79923248291017	-743.9851684570314	-203.884017944336	52.95037841796876	-696.4928588867189	-255.8149108886719	36.46898651123048	-650.8295288085939	
